<svg id="Layer_1" viewBox="0 0 24 24" xmlns="http://www.w3.org/2000/svg" data-name="Layer 1"><path d="m19.5 0h-15c-2.481 0-4.5 2.019-4.5 4.5v15c0 2.481 2.019 4.5 4.5 4.5h15c2.481 0 4.5-2.019 4.5-4.5v-15c0-2.481-2.019-4.5-4.5-4.5zm3.5 19.5c0 1.93-1.57 3.5-3.5 3.5h-15c-1.93 0-3.5-1.57-3.5-3.5v-15c0-1.93 1.57-3.5 3.5-3.5h15c1.93 0 3.5 1.57 3.5 3.5zm-6.497-14.5c-.668 0-1.297.26-1.768.731l-8.418 8.415c-.851.851-1.319 1.98-1.319 3.183v.67c0 .551.449 1 1 1h.672c1.202 0 2.332-.468 3.182-1.317l8.411-8.409c.969-.881.97-2.663.008-3.542-.472-.472-1.1-.731-1.768-.731zm-7.358 11.975c-.661.661-1.54 1.024-2.475 1.024h-.672v-.67c0-.935.364-1.814 1.026-2.476l6.312-6.31 2.122 2.121zm8.418-8.416-1.398 1.398-2.122-2.121 1.399-1.398c.564-.583 1.563-.581 2.129.008.567.519.564 1.593-.008 2.113z"/></svg>